<svg width="34" height="34" viewBox="0 0 34 34" fill="none" xmlns="http://www.w3.org/2000/svg">
<path d="M19.8763 2.84844L22.8097 8.71511C23.2097 9.53177 24.2763 10.3151 25.1763 10.4651L30.493 11.3484C33.893 11.9151 34.693 14.3818 32.243 16.8151L28.1097 20.9484C27.4097 21.6484 27.0263 22.9984 27.243 23.9651L28.4263 29.0818C29.3597 33.1318 27.2097 34.6984 23.6263 32.5818L18.643 29.6318C17.743 29.0984 16.2597 29.0984 15.343 29.6318L10.3597 32.5818C6.79301 34.6984 4.62635 33.1151 5.55968 29.0818L6.74301 23.9651C6.95968 22.9984 6.57635 21.6484 5.87635 20.9484L1.74301 16.8151C-0.690321 14.3818 0.0930129 11.9151 3.49301 11.3484L8.80968 10.4651C9.69301 10.3151 10.7597 9.53177 11.1597 8.71511L14.093 2.84844C15.693 -0.334896 18.293 -0.334896 19.8763 2.84844Z" fill="#FFB23E"/>
</svg>
